<svg id="Layer_1" xmlns="http://www.w3.org/2000/svg" xmlns:xlink="http://www.w3.org/1999/xlink" viewBox="0 0 238 238"><defs><style>.cls-1{fill:url(#linear-gradient);}.cls-2{fill:#240e33;}.cls-3{fill:#fff;}.cls-4{fill:#8657a3;}</style><linearGradient id="linear-gradient" x1="119" y1="2" x2="119" y2="236" gradientUnits="userSpaceOnUse"><stop offset="0" stop-color="#1c1027"/><stop offset="1" stop-color="#33194d"/></linearGradient></defs><rect class="cls-1" x="2" y="2" width="234" height="234" rx="45"/><path class="cls-2" d="M467.89,424.84h-144a47,47,0,0,1-47-47v-144a47,47,0,0,1,47-47h144a47.05,47.05,0,0,1,47,47v144A47.05,47.05,0,0,1,467.89,424.84Zm-144-234a43,43,0,0,0-43,43v144a43,43,0,0,0,43,43h144a43,43,0,0,0,43-43v-144a43,43,0,0,0-43-43Z" transform="translate(-276.89 -186.84)"/><path class="cls-2" d="M310.89,403.84v-188h148a22,22,0,0,1,22,22v144a22,22,0,0,1-22,22Zm126-44v-28h-82v28Zm0-72v-28h-82v28Z" transform="translate(-276.89 -186.84)"/><polygon class="cls-3" points="38 29 38 47 38 65 38 101 38 137 38 209 56 209 74 209 74 137 119 137 119 101 74 101 74 65 119 65 164 65 164 29 38 29"/><path class="cls-4" d="M458.89,215.84h-18v72h-45v36h45v36h-90v36h108a18,18,0,0,0,18-18v-144A18,18,0,0,0,458.89,215.84Z" transform="translate(-276.89 -186.84)"/></svg>
